<svg xmlns="http://www.w3.org/2000/svg">
<symbol id="airplane" viewBox="0 0 510 510"> <g> <g id="flights"> <path d="M510,255c0-20.4-17.85-38.25-38.25-38.25H331.5L204,12.75h-51l63.75,204H76.5l-38.25-51H0L25.5,255L0,344.25h38.25
			l38.25-51h140.25l-63.75,204h51l127.5-204h140.25C492.15,293.25,510,275.4,510,255z"/> </g> </g>                </symbol>
<symbol id="burger" viewBox="0 0 50 50"><path d="M3 41h44v-5H3zm0-13h44v-6H3zM3 9v5h44V9z" fill-rule="evenodd"/></symbol>
<symbol id="clock" viewBox="0 0 30 30"> <path d="M15,3C8.373,3,3,8.373,3,15c0,6.627,5.373,12,12,12s12-5.373,12-12C27,8.373,21.627,3,15,3z M16,16H7.995 C7.445,16,7,15.555,7,15.005v-0.011C7,14.445,7.445,14,7.995,14H14V5.995C14,5.445,14.445,5,14.995,5h0.011 C15.555,5,16,5.445,16,5.995V16z"/> </symbol>
<symbol id="facebook" viewBox="0 0 50 50"> <path d="M32,11h5c0.552,0,1-0.448,1-1V3.263c0-0.524-0.403-0.96-0.925-0.997C35.484,2.153,32.376,2,30.141,2C24,2,20,5.68,20,12.368 V19h-7c-0.552,0-1,0.448-1,1v7c0,0.552,0.448,1,1,1h7v19c0,0.552,0.448,1,1,1h7c0.552,0,1-0.448,1-1V28h7.222 c0.51,0,0.938-0.383,0.994-0.89l0.778-7C38.06,19.518,37.596,19,37,19h-8v-5C29,12.343,30.343,11,32,11z"/> </symbol>
<symbol id="instagram" viewBox="0 0 50 50"> <path d="M 16 3 C 8.83 3 3 8.83 3 16 L 3 34 C 3 41.17 8.83 47 16 47 L 34 47 C 41.17 47 47 41.17 47 34 L 47 16 C 47 8.83 41.17 3 34 3 L 16 3 z M 37 11 C 38.1 11 39 11.9 39 13 C 39 14.1 38.1 15 37 15 C 35.9 15 35 14.1 35 13 C 35 11.9 35.9 11 37 11 z M 25 14 C 31.07 14 36 18.93 36 25 C 36 31.07 31.07 36 25 36 C 18.93 36 14 31.07 14 25 C 14 18.93 18.93 14 25 14 z M 25 16 C 20.04 16 16 20.04 16 25 C 16 29.96 20.04 34 25 34 C 29.96 34 34 29.96 34 25 C 34 20.04 29.96 16 25 16 z"/> </symbol>
<symbol id="lifebuoy" viewBox="0 0 16 16"> <path d="M8 0c-4.4 0-8 3.6-8 8s3.6 8 8 8 8-3.6 8-8-3.6-8-8-8zM4 8c0-2.2 1.8-4 4-4s4 1.8 4 4c0 2.2-1.8 4-4 4s-4-1.8-4-4zM12.6 9.8c0.3-0.5 0.4-1.2 0.4-1.8s-0.1-1.3-0.4-1.8l1.5-1.5c0.6 1 0.9 2.1 0.9 3.3s-0.3 2.3-0.8 3.3l-1.6-1.5zM11.3 1.8l-1.5 1.6c-0.5-0.3-1.2-0.4-1.8-0.4s-1.3 0.1-1.8 0.4l-1.5-1.6c1-0.5 2.1-0.8 3.3-0.8s2.3 0.3 3.3 0.8zM1.8 4.7l1.5 1.5c-0.2 0.5-0.3 1.2-0.3 1.8s0.1 1.3 0.4 1.8l-1.5 1.5c-0.6-1-0.9-2.1-0.9-3.3s0.3-2.3 0.8-3.3zM4.7 14.2l1.5-1.5c0.5 0.2 1.2 0.3 1.8 0.3s1.3-0.1 1.8-0.4l1.5 1.5c-1 0.6-2.1 0.9-3.3 0.9s-2.3-0.3-3.3-0.8z"/> </symbol>
<symbol id="maestro" viewBox="0 0 48.43 48.43"> <g> <g> <path d="M47.381,32.029c-0.041-0.076-0.1-0.133-0.177-0.174c-0.074-0.041-0.15-0.062-0.229-0.062c-0.08,0-0.156,0.021-0.23,0.062
			c-0.074,0.041-0.135,0.098-0.176,0.174c-0.041,0.073-0.062,0.151-0.062,0.232s0.021,0.159,0.062,0.232
			c0.043,0.074,0.101,0.134,0.174,0.175c0.074,0.041,0.152,0.062,0.234,0.062c0.079,0,0.157-0.021,0.231-0.062
			c0.073-0.041,0.131-0.101,0.173-0.175c0.041-0.073,0.062-0.152,0.062-0.232C47.443,32.18,47.423,32.102,47.381,32.029z
			 M47.135,32.435h-0.102l-0.062-0.154H46.91v0.154h-0.082v-0.392h0.164c0.02,0,0.061,0.001,0.102,0.022
			c0.021,0.02,0.041,0.059,0.041,0.098c0,0.043-0.02,0.084-0.061,0.102L47.135,32.435z"/> </g> </g> <g> <g> <path d="M47.013,32.123c0-0.008-0.041-0.008-0.062-0.008H46.91v0.101h0.062c0,0,0.021,0,0.041-0.008
			c0.021-0.009,0.021-0.028,0.021-0.046C47.034,32.147,47.034,32.131,47.013,32.123z"/> </g> </g> <g> <g> <path d="M33.935,9.716c-3.743,0.001-7.153,1.42-9.723,3.748c-2.572-2.327-5.98-3.745-9.718-3.745c-0.031,0-0.062,0-0.093,0
			C6.443,9.771,0,16.245,0,24.214c0,8.002,6.494,14.494,14.494,14.494c3.738,0,7.145-1.418,9.717-3.745
			c-0.537-0.485-1.023-1.022-1.482-1.584h2.994c-0.452,0.554-0.945,1.072-1.472,1.552h-0.003c0.001,0.002,0.001,0.002,0.001,0.002
			c-0.012,0.011-0.025,0.019-0.037,0.031c2.571,2.331,5.985,3.75,9.729,3.749c8.006-0.002,14.491-6.494,14.489-14.498
			c0-0.003,0-0.005,0-0.007C48.428,16.204,41.937,9.716,33.935,9.716z M22.894,14.962h2.754c0.408,0.491,0.785,1.01,1.125,1.552
			H21.86C22.174,15.995,22.522,15.464,22.894,14.962z M21.002,18.037h6.605c0.237,0.503,0.445,1.021,0.625,1.553h-8.013
			C20.298,19.44,20.578,18.836,21.002,18.037z M13.698,27.69h-1.72l1.024-5.37l-2.355,5.37H9.091l-0.287-5.334L7.78,27.69H6.223
			l1.332-6.982h2.683l0.123,4.324l1.905-4.324h2.786L13.698,27.69z M19.782,24.673l-0.369,2.017l-0.061,0.361l-0.041,0.288
			l-0.021,0.194l-0.02,0.154h-1.433l0.041-0.587c-0.429,0.468-1.024,0.685-1.802,0.685c-0.922,0-1.557-0.633-1.557-1.549
			c0-1.382,1.106-2.19,3.01-2.19c0.184,0,0.43,0.017,0.696,0.044c0.041-0.187,0.062-0.265,0.062-0.369
			c0-0.375-0.308-0.515-1.106-0.515c-0.492,0-1.045,0.059-1.413,0.157l-0.246,0.062l-0.143,0.037l0.225-1.279
			c0.86-0.218,1.413-0.299,2.048-0.299c1.474,0,2.253,0.577,2.253,1.665C19.905,23.831,19.885,24.042,19.782,24.673z M23.204,21.871
			c1.412,0,2.314,0.803,2.314,2.062c0,0.421-0.062,0.828-0.207,1.404h-3.398c-0.021,0.087-0.021,0.126-0.021,0.18
			c0,0.657,0.512,0.992,1.495,0.992c0.615,0,1.168-0.11,1.782-0.36l-0.286,1.422c-0.574,0.154-1.147,0.229-1.741,0.229
			c-1.925,0-2.929-0.873-2.929-2.546C20.213,23.307,21.483,21.873,23.204,21.871z M26.791,31.888h-5.143
			c-0.312-0.5-0.605-1.013-0.856-1.552h6.843C27.384,30.873,27.103,31.389,26.791,31.888z M29.942,23.315
			c-0.451-0.052-0.901-0.083-1.25-0.083c-0.554,0-0.84,0.156-0.84,0.461c0,0.266,0.082,0.33,0.799,0.618
			c0.879,0.345,1.229,0.802,1.229,1.581c0,1.296-0.84,1.895-2.684,1.895c-0.224,0-0.531-0.017-0.941-0.047
			c-0.205-0.015-0.368-0.031-0.472-0.052l-0.307-0.056l-0.082-0.016l0.246-1.31c0.553,0.156,1.026,0.224,1.557,0.224
			c0.676,0,0.983-0.158,0.983-0.512c0-0.26-0.103-0.344-0.799-0.627c-0.921-0.371-1.331-0.867-1.331-1.583
			c0-1.049,0.676-1.922,2.602-1.922c0.41,0,1.086,0.05,1.535,0.112L29.942,23.315z M32.627,26.419c0.183,0,0.326-0.018,0.449-0.055
			l-0.225,1.26c-0.471,0.129-0.839,0.186-1.229,0.186c-0.881,0-1.352-0.443-1.352-1.248c0-0.16,0.02-0.33,0.041-0.51l0.103-0.559
			l0.081-0.449l0.799-4.336h1.699l-0.245,1.304h0.88l-0.246,1.382h-0.881l-0.45,2.369c-0.021,0.103-0.021,0.181-0.021,0.234
			C32.03,26.292,32.215,26.417,32.627,26.419z M36.816,23.61c-0.819,0-1.084,0.61-1.699,4.083h-1.721l1.045-5.68h1.557l-0.164,0.862
			c0.533-0.671,0.941-0.923,1.495-0.923c0.062,0,0.124,0.006,0.185,0.014c0,0.003,0.063,0.014,0.146,0.034
			c0.02,0.006,0.04,0.006,0.184,0.062l-0.612,1.605l-0.205-0.042C36.945,23.615,36.884,23.61,36.816,23.61z M39.855,27.842
			c-1.95,0-2.726-1.178-2.726-2.619c0-2.011,1.331-3.376,3.379-3.376c1.784,0,2.726,1.122,2.726,2.562c0,0.353,0,0.377-0.041,0.707
			C42.926,27.005,41.615,27.844,39.855,27.842z M43.377,27.69c-0.246,0-0.451-0.199-0.451-0.445c0-0.242,0.205-0.441,0.451-0.441
			c0.246,0,0.451,0.199,0.451,0.441C43.828,27.492,43.623,27.69,43.377,27.69z"/> </g> </g> <g> <g> <path d="M43.377,26.909c-0.184,0-0.348,0.151-0.348,0.336c0,0.19,0.164,0.34,0.348,0.34c0.185,0,0.328-0.152,0.328-0.34
			C43.705,27.061,43.562,26.909,43.377,26.909z M43.54,27.443h-0.103l-0.062-0.153h-0.062v0.153h-0.082V27.05h0.164
			c0.022,0,0.063,0.002,0.104,0.023c0.02,0.019,0.041,0.058,0.041,0.098c0,0.042-0.021,0.084-0.062,0.102L43.54,27.443z"/> </g> </g> <g> <g> <path d="M43.417,27.13c0.001-0.009-0.04-0.009-0.06-0.009h-0.043v0.101h0.062c0,0,0.021,0,0.041-0.008
			c0.021-0.009,0.021-0.028,0.021-0.045C43.438,27.154,43.438,27.138,43.417,27.13z"/> </g> </g> <g> <g> <path d="M23.183,23.172c-0.553,0-0.942,0.361-1.106,1.019l1.905,0.004c0-0.124,0-0.22,0-0.294
			C23.982,23.44,23.695,23.172,23.183,23.172z"/> </g> </g> <g> <g> <path d="M17.631,25.139c-0.961-0.001-1.453,0.29-1.453,0.864c0,0.353,0.226,0.579,0.614,0.579c0.697,0,1.188-0.582,1.229-1.422
			C17.836,25.141,17.754,25.139,17.631,25.139z"/> </g> </g> <g> <g> <path d="M40.468,23.237c-0.881,0-1.413,1.035-1.413,1.947c0,0.772,0.368,1.29,0.983,1.278c0.37,0,1.167-0.509,1.311-1.392
			c0.04-0.207,0.061-0.434,0.061-0.681C41.41,23.797,41.165,23.235,40.468,23.237z"/> </g> </g>                </symbol>
<symbol id="mastercard" viewBox="0 0 504 504"> <path style="fill:#FFB600;" d="M504,252c0,83.2-67.2,151.2-151.2,151.2c-83.2,0-151.2-68-151.2-151.2l0,0
	c0-83.2,67.2-151.2,150.4-151.2C436.8,100.8,504,168.8,504,252L504,252z"/> <path style="fill:#F7981D;" d="M352.8,100.8c83.2,0,151.2,68,151.2,151.2l0,0c0,83.2-67.2,151.2-151.2,151.2
	c-83.2,0-151.2-68-151.2-151.2"/> <path style="fill:#FF8500;" d="M352.8,100.8c83.2,0,151.2,68,151.2,151.2l0,0c0,83.2-67.2,151.2-151.2,151.2"/> <path style="fill:#FF5050;" d="M149.6,100.8C67.2,101.6,0,168.8,0,252s67.2,151.2,151.2,151.2c39.2,0,74.4-15.2,101.6-39.2l0,0l0,0
	c5.6-4.8,10.4-10.4,15.2-16h-31.2c-4-4.8-8-10.4-11.2-15.2h53.6c3.2-4.8,6.4-10.4,8.8-16h-71.2c-2.4-4.8-4.8-10.4-6.4-16h83.2
	c4.8-15.2,8-31.2,8-48c0-11.2-1.6-21.6-3.2-32h-92.8c0.8-5.6,2.4-10.4,4-16h83.2c-1.6-5.6-4-11.2-6.4-16H216
	c2.4-5.6,5.6-10.4,8.8-16h53.6c-3.2-5.6-7.2-11.2-12-16h-29.6c4.8-5.6,9.6-10.4,15.2-15.2c-26.4-24.8-62.4-39.2-101.6-39.2
	C150.4,100.8,150.4,100.8,149.6,100.8z"/> <path style="fill:#E52836;" d="M0,252c0,83.2,67.2,151.2,151.2,151.2c39.2,0,74.4-15.2,101.6-39.2l0,0l0,0
	c5.6-4.8,10.4-10.4,15.2-16h-31.2c-4-4.8-8-10.4-11.2-15.2h53.6c3.2-4.8,6.4-10.4,8.8-16h-71.2c-2.4-4.8-4.8-10.4-6.4-16h83.2
	c4.8-15.2,8-31.2,8-48c0-11.2-1.6-21.6-3.2-32h-92.8c0.8-5.6,2.4-10.4,4-16h83.2c-1.6-5.6-4-11.2-6.4-16H216
	c2.4-5.6,5.6-10.4,8.8-16h53.6c-3.2-5.6-7.2-11.2-12-16h-29.6c4.8-5.6,9.6-10.4,15.2-15.2c-26.4-24.8-62.4-39.2-101.6-39.2h-0.8"/> <path style="fill:#CB2026;" d="M151.2,403.2c39.2,0,74.4-15.2,101.6-39.2l0,0l0,0c5.6-4.8,10.4-10.4,15.2-16h-31.2
	c-4-4.8-8-10.4-11.2-15.2h53.6c3.2-4.8,6.4-10.4,8.8-16h-71.2c-2.4-4.8-4.8-10.4-6.4-16h83.2c4.8-15.2,8-31.2,8-48
	c0-11.2-1.6-21.6-3.2-32h-92.8c0.8-5.6,2.4-10.4,4-16h83.2c-1.6-5.6-4-11.2-6.4-16H216c2.4-5.6,5.6-10.4,8.8-16h53.6
	c-3.2-5.6-7.2-11.2-12-16h-29.6c4.8-5.6,9.6-10.4,15.2-15.2c-26.4-24.8-62.4-39.2-101.6-39.2h-0.8"/> <g> <path style="fill:#FFFFFF;" d="M204.8,290.4l2.4-13.6c-0.8,0-2.4,0.8-4,0.8c-5.6,0-6.4-3.2-5.6-4.8l4.8-28h8.8l2.4-15.2h-8l1.6-9.6
		h-16c0,0-9.6,52.8-9.6,59.2c0,9.6,5.6,13.6,12.8,13.6C199.2,292.8,203.2,291.2,204.8,290.4z"/> <path style="fill:#FFFFFF;" d="M210.4,264.8c0,22.4,15.2,28,28,28c12,0,16.8-2.4,16.8-2.4l3.2-15.2c0,0-8.8,4-16.8,4
		c-17.6,0-14.4-12.8-14.4-12.8H260c0,0,2.4-10.4,2.4-14.4c0-10.4-5.6-23.2-23.2-23.2C222.4,227.2,210.4,244.8,210.4,264.8z
		 M238.4,241.6c8.8,0,7.2,10.4,7.2,11.2H228C228,252,229.6,241.6,238.4,241.6z"/> <path style="fill:#FFFFFF;" d="M340,290.4l3.2-17.6c0,0-8,4-13.6,4c-11.2,0-16-8.8-16-18.4c0-19.2,9.6-29.6,20.8-29.6
		c8,0,14.4,4.8,14.4,4.8l2.4-16.8c0,0-9.6-4-18.4-4c-18.4,0-36.8,16-36.8,46.4c0,20,9.6,33.6,28.8,33.6
		C331.2,292.8,340,290.4,340,290.4z"/> <path style="fill:#FFFFFF;" d="M116.8,227.2c-11.2,0-19.2,3.2-19.2,3.2L95.2,244c0,0,7.2-3.2,17.6-3.2c5.6,0,10.4,0.8,10.4,5.6
		c0,3.2-0.8,4-0.8,4s-4.8,0-7.2,0c-13.6,0-28.8,5.6-28.8,24c0,14.4,9.6,17.6,15.2,17.6c11.2,0,16-7.2,16.8-7.2l-0.8,6.4H132l6.4-44
		C138.4,228,122.4,227.2,116.8,227.2z M120,263.2c0,2.4-1.6,15.2-11.2,15.2c-4.8,0-6.4-4-6.4-6.4c0-4,2.4-9.6,14.4-9.6
		C119.2,263.2,120,263.2,120,263.2z"/> <path style="fill:#FFFFFF;" d="M153.6,292c4,0,24,0.8,24-20.8c0-20-19.2-16-19.2-24c0-4,3.2-5.6,8.8-5.6c2.4,0,11.2,0.8,11.2,0.8
		l2.4-14.4c0,0-5.6-1.6-15.2-1.6c-12,0-24,4.8-24,20.8c0,18.4,20,16.8,20,24c0,4.8-5.6,5.6-9.6,5.6c-7.2,0-14.4-2.4-14.4-2.4
		l-2.4,14.4C136,290.4,140,292,153.6,292z"/> <path style="fill:#FFFFFF;" d="M472.8,214.4l-3.2,21.6c0,0-6.4-8-15.2-8c-14.4,0-27.2,17.6-27.2,38.4c0,12.8,6.4,26.4,20,26.4
		c9.6,0,15.2-6.4,15.2-6.4l-0.8,5.6h16l12-76.8L472.8,214.4z M465.6,256.8c0,8.8-4,20-12.8,20c-5.6,0-8.8-4.8-8.8-12.8
		c0-12.8,5.6-20.8,12.8-20.8C462.4,243.2,465.6,247.2,465.6,256.8z"/> <path style="fill:#FFFFFF;" d="M29.6,291.2l9.6-57.6l1.6,57.6H52l20.8-57.6L64,291.2h16.8l12.8-76.8H67.2l-16,47.2l-0.8-47.2H27.2
		l-12.8,76.8H29.6z"/> <path style="fill:#FFFFFF;" d="M277.6,291.2c4.8-26.4,5.6-48,16.8-44c1.6-10.4,4-14.4,5.6-18.4c0,0-0.8,0-3.2,0
		c-7.2,0-12.8,9.6-12.8,9.6l1.6-8.8h-15.2L260,292h17.6V291.2z"/> <path style="fill:#FFFFFF;" d="M376.8,227.2c-11.2,0-19.2,3.2-19.2,3.2l-2.4,13.6c0,0,7.2-3.2,17.6-3.2c5.6,0,10.4,0.8,10.4,5.6
		c0,3.2-0.8,4-0.8,4s-4.8,0-7.2,0c-13.6,0-28.8,5.6-28.8,24c0,14.4,9.6,17.6,15.2,17.6c11.2,0,16-7.2,16.8-7.2l-0.8,6.4H392l6.4-44
		C399.2,228,382.4,227.2,376.8,227.2z M380.8,263.2c0,2.4-1.6,15.2-11.2,15.2c-4.8,0-6.4-4-6.4-6.4c0-4,2.4-9.6,14.4-9.6
		C380,263.2,380,263.2,380.8,263.2z"/> <path style="fill:#FFFFFF;" d="M412,291.2c4.8-26.4,5.6-48,16.8-44c1.6-10.4,4-14.4,5.6-18.4c0,0-0.8,0-3.2,0
		c-7.2,0-12.8,9.6-12.8,9.6l1.6-8.8h-15.2L394.4,292H412V291.2z"/> </g> <g> <path style="fill:#DCE5E5;" d="M180,279.2c0,9.6,5.6,13.6,12.8,13.6c5.6,0,10.4-1.6,12-2.4l2.4-13.6c-0.8,0-2.4,0.8-4,0.8
		c-5.6,0-6.4-3.2-5.6-4.8l4.8-28h8.8l2.4-15.2h-8l1.6-9.6"/> <path style="fill:#DCE5E5;" d="M218.4,264.8c0,22.4,7.2,28,20,28c12,0,16.8-2.4,16.8-2.4l3.2-15.2c0,0-8.8,4-16.8,4
		c-17.6,0-14.4-12.8-14.4-12.8H260c0,0,2.4-10.4,2.4-14.4c0-10.4-5.6-23.2-23.2-23.2C222.4,227.2,218.4,244.8,218.4,264.8z
		 M238.4,241.6c8.8,0,10.4,10.4,10.4,11.2H228C228,252,229.6,241.6,238.4,241.6z"/> <path style="fill:#DCE5E5;" d="M340,290.4l3.2-17.6c0,0-8,4-13.6,4c-11.2,0-16-8.8-16-18.4c0-19.2,9.6-29.6,20.8-29.6
		c8,0,14.4,4.8,14.4,4.8l2.4-16.8c0,0-9.6-4-18.4-4c-18.4,0-28.8,16-28.8,46.4c0,20,1.6,33.6,20.8,33.6
		C331.2,292.8,340,290.4,340,290.4z"/> <path style="fill:#DCE5E5;" d="M95.2,244.8c0,0,7.2-3.2,17.6-3.2c5.6,0,10.4,0.8,10.4,5.6c0,3.2-0.8,4-0.8,4s-4.8,0-7.2,0
		c-13.6,0-28.8,5.6-28.8,24c0,14.4,9.6,17.6,15.2,17.6c11.2,0,16-7.2,16.8-7.2l-0.8,6.4H132l6.4-44c0-18.4-16-19.2-22.4-19.2
		 M128,263.2c0,2.4-9.6,15.2-19.2,15.2c-4.8,0-6.4-4-6.4-6.4c0-4,2.4-9.6,14.4-9.6C119.2,263.2,128,263.2,128,263.2z"/> <path style="fill:#DCE5E5;" d="M136,290.4c0,0,4.8,1.6,18.4,1.6c4,0,24,0.8,24-20.8c0-20-19.2-16-19.2-24c0-4,3.2-5.6,8.8-5.6
		c2.4,0,11.2,0.8,11.2,0.8l2.4-14.4c0,0-5.6-1.6-15.2-1.6c-12,0-16,4.8-16,20.8c0,18.4,12,16.8,12,24c0,4.8-5.6,5.6-9.6,5.6"/> <path style="fill:#DCE5E5;" d="M469.6,236c0,0-6.4-8-15.2-8c-14.4,0-19.2,17.6-19.2,38.4c0,12.8-1.6,26.4,12,26.4
		c9.6,0,15.2-6.4,15.2-6.4l-0.8,5.6h16l12-76.8 M468.8,256.8c0,8.8-7.2,20-16,20c-5.6,0-8.8-4.8-8.8-12.8c0-12.8,5.6-20.8,12.8-20.8
		C462.4,243.2,468.8,247.2,468.8,256.8z"/> <path style="fill:#DCE5E5;" d="M29.6,291.2l9.6-57.6l1.6,57.6H52l20.8-57.6L64,291.2h16.8l12.8-76.8h-20l-22.4,47.2l-0.8-47.2h-8.8
		l-27.2,76.8H29.6z"/> <path style="fill:#DCE5E5;" d="M260.8,291.2h16.8c4.8-26.4,5.6-48,16.8-44c1.6-10.4,4-14.4,5.6-18.4c0,0-0.8,0-3.2,0
		c-7.2,0-12.8,9.6-12.8,9.6l1.6-8.8"/> <path style="fill:#DCE5E5;" d="M355.2,244.8c0,0,7.2-3.2,17.6-3.2c5.6,0,10.4,0.8,10.4,5.6c0,3.2-0.8,4-0.8,4s-4.8,0-7.2,0
		c-13.6,0-28.8,5.6-28.8,24c0,14.4,9.6,17.6,15.2,17.6c11.2,0,16-7.2,16.8-7.2l-0.8,6.4H392l6.4-44c0-18.4-16-19.2-22.4-19.2
		 M388,263.2c0,2.4-9.6,15.2-19.2,15.2c-4.8,0-6.4-4-6.4-6.4c0-4,2.4-9.6,14.4-9.6C380,263.2,388,263.2,388,263.2z"/> <path style="fill:#DCE5E5;" d="M395.2,291.2H412c4.8-26.4,5.6-48,16.8-44c1.6-10.4,4-14.4,5.6-18.4c0,0-0.8,0-3.2,0
		c-7.2,0-12.8,9.6-12.8,9.6l1.6-8.8"/> </g>                </symbol>
<symbol id="paypal" viewBox="0 0 469.351 469.351"> <path style="fill:#03A9F4;" d="M356.626,85.086c-10.332-9.837-25.314-13.036-38.763-8.277c-3.803,1.271-6.573,4.568-7.168,8.533
	l-2.987,20.523c-4.529,30.998-31.052,54.019-62.379,54.144h-42.667c-4.896,0.001-9.162,3.335-10.347,8.085l-32,128
	c-1.426,5.716,2.052,11.505,7.768,12.931c0.843,0.21,1.709,0.317,2.578,0.317h53.333c4.896-0.001,9.162-3.335,10.347-8.085
	l19.307-77.248h41.6c31.934,0.106,59.792-21.66,67.413-52.672l7.872-31.552C376.075,120.377,370.763,99.49,356.626,85.086z"/> <g> <path style="fill:#283593;" d="M10.664,437.342C4.773,437.341-0.002,432.564,0,426.673c0-0.869,0.107-1.735,0.317-2.578
		l10.667-42.453v-0.448l10.667-42.432c1.185-4.75,5.451-8.084,10.347-8.085h27.136c14.728-0.003,26.669,11.933,26.673,26.661
		c0,2.181-0.267,4.354-0.795,6.47l-2.667,10.667c-2.967,11.875-13.637,20.205-25.877,20.203H29.672l-8.64,34.581
		C19.845,434.015,15.567,437.351,10.664,437.342z M35.005,373.342h21.461c2.447-0.007,4.575-1.678,5.163-4.053l2.667-10.667
		c0.731-2.841-0.981-5.737-3.822-6.467c-0.438-0.113-0.888-0.169-1.341-0.167H40.338L35.005,373.342z"/> <path style="fill:#283593;" d="M124.733,437.342h-15.189c-16.33,0.004-29.571-13.231-29.575-29.561
		c-0.001-2.419,0.296-4.829,0.882-7.175l0,0l1.408-5.675c3.157-12.736,14.612-21.662,27.733-21.611h15.189
		c16.33,0.028,29.545,13.289,29.517,29.619c-0.004,2.407-0.302,4.804-0.887,7.138l-1.408,5.675
		C149.243,428.457,137.824,437.366,124.733,437.342z M101.565,405.79c-1.096,4.414,1.594,8.88,6.008,9.976
		c0.645,0.16,1.306,0.241,1.971,0.243h15.189c3.289,0.009,6.159-2.227,6.955-5.419l1.408-5.675c1.096-4.414-1.594-8.88-6.008-9.976
		c-0.645-0.16-1.306-0.241-1.971-0.243h-15.189c-3.289-0.009-6.159,2.227-6.955,5.419L101.565,405.79z"/> <path style="fill:#283593;" d="M138.664,437.342c-5.891-0.002-10.665-4.779-10.664-10.67c0-0.869,0.107-1.735,0.317-2.578
		l10.667-42.667c1.426-5.72,7.218-9.202,12.939-7.776c5.72,1.426,9.202,7.218,7.776,12.939l-10.667,42.667
		C147.845,434.015,143.567,437.351,138.664,437.342z"/> </g> <g> <path style="fill:#03A9F4;" d="M266.664,437.342c-5.891-0.002-10.665-4.779-10.664-10.67c0-0.869,0.107-1.735,0.317-2.578
		l10.667-42.453v-0.448l10.667-42.432c1.185-4.75,5.451-8.084,10.347-8.085h27.136c14.728-0.003,26.669,11.933,26.673,26.661
		c0,2.181-0.267,4.354-0.795,6.47l-2.667,10.667c-2.967,11.875-13.637,20.205-25.877,20.203h-26.795l-8.64,34.581
		C275.845,434.015,271.567,437.351,266.664,437.342z M291.005,373.342h21.483c2.447-0.007,4.575-1.678,5.163-4.053l2.667-10.667
		c0.73-2.841-0.981-5.737-3.822-6.467c-0.438-0.113-0.889-0.169-1.341-0.167h-18.816L291.005,373.342z"/> <path style="fill:#03A9F4;" d="M380.733,437.342h-15.189c-16.33,0.004-29.571-13.231-29.575-29.561
		c-0.001-2.419,0.296-4.829,0.882-7.175l0,0l1.408-5.675c3.157-12.736,14.612-21.662,27.733-21.611h15.189
		c16.33-0.004,29.571,13.231,29.575,29.561c0.001,2.419-0.296,4.829-0.882,7.175l-1.408,5.675
		C405.309,428.467,393.854,437.393,380.733,437.342z M357.565,405.79c-1.096,4.414,1.594,8.88,6.008,9.976
		c0.645,0.16,1.306,0.241,1.971,0.243h15.189c3.289,0.009,6.159-2.227,6.955-5.419l1.408-5.675c1.096-4.414-1.594-8.88-6.008-9.976
		c-0.645-0.16-1.306-0.241-1.971-0.243h-15.189c-3.289-0.009-6.159,2.227-6.955,5.419L357.565,405.79z"/> <path style="fill:#03A9F4;" d="M394.664,437.342c-5.891-0.002-10.665-4.779-10.664-10.67c0-0.869,0.107-1.735,0.317-2.578
		l10.667-42.667c1.426-5.72,7.218-9.202,12.939-7.776c5.72,1.426,9.202,7.218,7.776,12.939l0,0l-10.667,42.667
		C403.845,434.015,399.567,437.351,394.664,437.342z"/> </g> <g> <path style="fill:#283593;" d="M202.664,426.676c-3.568-0.002-6.898-1.787-8.875-4.757l-21.333-32
		c-3.27-4.901-1.947-11.525,2.955-14.795s11.525-1.947,14.795,2.955l21.333,32c3.275,4.897,1.961,11.521-2.935,14.797
		C206.846,426.051,204.778,426.677,202.664,426.676z"/> <path style="fill:#283593;" d="M181.33,458.676c-5.891-0.002-10.665-4.78-10.663-10.671c0.001-2.493,0.875-4.907,2.471-6.823
		l53.333-64c3.776-4.524,10.505-5.131,15.029-1.355c4.524,3.776,5.131,10.505,1.355,15.029l0,0l-53.333,64
		C187.493,457.281,184.492,458.68,181.33,458.676z"/> </g> <path style="fill:#03A9F4;" d="M437.33,437.342c-5.891-0.002-10.665-4.779-10.664-10.67c0-0.869,0.107-1.735,0.317-2.578
	l21.333-85.333c1.426-5.72,7.218-9.202,12.939-7.776c5.72,1.426,9.202,7.218,7.776,12.939l0,0l-21.333,85.333
	C446.512,434.015,442.234,437.351,437.33,437.342z"/> <path style="fill:#283593;" d="M321.405,29.129c-10.249-11.739-25.077-18.468-40.661-18.453H159.997
	c-5.159,0-9.578,3.692-10.496,8.768L106.834,254.11c-1.049,5.797,2.801,11.346,8.598,12.395c0.626,0.113,1.262,0.17,1.898,0.17h64
	c4.896-0.001,9.162-3.335,10.347-8.085l19.328-77.248h34.325c41.958-0.165,77.478-31.012,83.52-72.533l5.333-36.459l0,0
	C336.382,56.773,331.721,41.007,321.405,29.129z"/>                </symbol>
<symbol id="phone" viewBox="0 0 50 64"> <path d="M50.286 44.286q0 0.964-0.357 2.518t-0.75 2.446q-0.75 1.786-4.357 3.786-3.357 1.821-6.643 1.821-0.964 0-1.893-0.125t-2.054-0.446-1.679-0.518-1.982-0.732-1.75-0.643q-3.5-1.25-6.25-2.964-4.536-2.821-9.429-7.714t-7.714-9.429q-1.714-2.75-2.964-6.25-0.107-0.321-0.643-1.75t-0.732-1.982-0.518-1.679-0.446-2.054-0.125-1.893q0-3.286 1.821-6.643 2-3.607 3.786-4.357 0.893-0.393 2.446-0.75t2.518-0.357q0.5 0 0.75 0.107 0.643 0.214 1.893 2.714 0.393 0.679 1.071 1.929t1.25 2.268 1.107 1.911q0.107 0.143 0.625 0.893t0.768 1.268 0.25 1.018q0 0.714-1.018 1.786t-2.214 1.964-2.214 1.893-1.018 1.643q0 0.321 0.179 0.804t0.304 0.732 0.5 0.857 0.411 0.679q2.714 4.893 6.214 8.393t8.393 6.214q0.071 0.036 0.679 0.411t0.857 0.5 0.732 0.304 0.804 0.179q0.643 0 1.643-1.018t1.893-2.214 1.964-2.214 1.786-1.018q0.5 0 1.018 0.25t1.268 0.768 0.893 0.625q0.893 0.536 1.911 1.107t2.268 1.25 1.929 1.071q2.5 1.25 2.714 1.893 0.107 0.25 0.107 0.75z"/> </symbol>
<symbol id="pinterest" viewBox="0 0 50 50"> <path d="M25,2C12.318,2,2,12.317,2,25s10.318,23,23,23s23-10.317,23-23S37.682,2,25,2z M27.542,32.719 c-3.297,0-4.516-2.138-4.516-2.138s-0.588,2.309-1.021,3.95s-0.507,1.665-0.927,2.591c-0.471,1.039-1.626,2.674-1.966,3.177 c-0.271,0.401-0.607,0.735-0.804,0.696c-0.197-0.038-0.197-0.245-0.245-0.678c-0.066-0.595-0.258-2.594-0.166-3.946 c0.06-0.88,0.367-2.371,0.367-2.371l2.225-9.108c-1.368-2.807-0.246-7.192,2.871-7.192c2.211,0,2.79,2.001,2.113,4.406 c-0.301,1.073-1.246,4.082-1.275,4.224c-0.029,0.142-0.099,0.442-0.083,0.738c0,0.878,0.671,2.672,2.995,2.672 c3.744,0,5.517-5.535,5.517-9.237c0-2.977-1.892-6.573-7.416-6.573c-5.628,0-8.732,4.283-8.732,8.214 c0,2.205,0.87,3.091,1.273,3.577c0.328,0.395,0.162,0.774,0.162,0.774l-0.355,1.425c-0.131,0.471-0.552,0.713-1.143,0.368 C15.824,27.948,13,26.752,13,21.649C13,16.42,17.926,11,25.571,11C31.64,11,37,14.817,37,21.001 C37,28.635,32.232,32.719,27.542,32.719z"/> </symbol>
<symbol id="rss" viewBox="0 0 26 25"><path d="M6.503 20.752c0 1.794-1.456 3.248-3.251 3.248-1.796 0-3.252-1.454-3.252-3.248 0-1.794 1.456-3.248 3.252-3.248 1.795.001 3.251 1.454 3.251 3.248zm-6.503-12.572v4.811c6.05.062 10.96 4.966 11.022 11.009h4.817c-.062-8.71-7.118-15.758-15.839-15.82zm0-3.368c10.58.046 19.152 8.594 19.183 19.188h4.817c-.03-13.231-10.755-23.954-24-24v4.812z"/></symbol>
<symbol id="tel" viewBox="0 0 50 64"><path d="M50 44a12 12 0 0 1 0 3 14 14 0 0 1-1 2l-4 4a14 14 0 0 1-7 2 13 13 0 0 1-2 0 15 15 0 0 1-2-1h-1l-2-1-2-1a32 32 0 0 1-6-3 54 54 0 0 1-10-7 54 54 0 0 1-8-10 33 33 0 0 1-3-6 48 48 0 0 0-1-4v-1a16 16 0 0 1-1-3 15 15 0 0 1 0-1 14 14 0 0 1 2-7c1-2 2-4 4-4a14 14 0 0 1 2-1 12 12 0 0 1 3 0l2 2 1 2 2 3 1 1v1a10 10 0 0 1 1 2 2 2 0 0 1 0 1 3 3 0 0 1-1 1 17 17 0 0 1-2 2 21 21 0 0 0-2 2 3 3 0 0 0-1 2 2 2 0 0 0 0 1v1h1v1a38 38 0 0 0 6 8 38 38 0 0 0 9 7h1v1a6 6 0 0 0 1 0 2 2 0 0 0 1 0 3 3 0 0 0 2-1 24 24 0 0 0 1-2 18 18 0 0 1 2-2 3 3 0 0 1 2-1 2 2 0 0 1 1 0 12 12 0 0 1 1 1h1l2 1 3 2 1 1 3 2z"/></symbol>
<symbol id="twitter" viewBox="0 0 50 50"> <g id="surface1"> <path style=" " d="M 50.0625 10.4375 C 48.214844 11.257813 46.234375 11.808594 44.152344 12.058594 C 46.277344 10.785156 47.910156 8.769531 48.675781 6.371094 C 46.691406 7.546875 44.484375 8.402344 42.144531 8.863281 C 40.269531 6.863281 37.597656 5.617188 34.640625 5.617188 C 28.960938 5.617188 24.355469 10.21875 24.355469 15.898438 C 24.355469 16.703125 24.449219 17.488281 24.625 18.242188 C 16.078125 17.8125 8.503906 13.71875 3.429688 7.496094 C 2.542969 9.019531 2.039063 10.785156 2.039063 12.667969 C 2.039063 16.234375 3.851563 19.382813 6.613281 21.230469 C 4.925781 21.175781 3.339844 20.710938 1.953125 19.941406 C 1.953125 19.984375 1.953125 20.027344 1.953125 20.070313 C 1.953125 25.054688 5.5 29.207031 10.199219 30.15625 C 9.339844 30.390625 8.429688 30.515625 7.492188 30.515625 C 6.828125 30.515625 6.183594 30.453125 5.554688 30.328125 C 6.867188 34.410156 10.664063 37.390625 15.160156 37.472656 C 11.644531 40.230469 7.210938 41.871094 2.390625 41.871094 C 1.558594 41.871094 0.742188 41.824219 -0.0585938 41.726563 C 4.488281 44.648438 9.894531 46.347656 15.703125 46.347656 C 34.617188 46.347656 44.960938 30.679688 44.960938 17.09375 C 44.960938 16.648438 44.949219 16.199219 44.933594 15.761719 C 46.941406 14.3125 48.683594 12.5 50.0625 10.4375 Z "/> </g> </symbol>
<symbol id="visa" viewBox="0 0 512 512"> <path style="fill:#FFFFFF;" d="M512,402.281c0,16.716-13.55,30.267-30.265,30.267H30.265C13.55,432.549,0,418.997,0,402.281V109.717
	c0-16.716,13.55-30.266,30.265-30.266h451.47c16.716,0,30.265,13.551,30.265,30.266V402.281L512,402.281z"/> <path style="fill:#F79F1A;" d="M113.64,258.035l-12.022-57.671c-2.055-7.953-8.035-10.319-15.507-10.632H30.993l-0.491,2.635
	C73.431,202.774,101.836,227.88,113.64,258.035z"/> <g> <polygon style="fill:#059BBF;" points="241.354,190.892 205.741,190.892 183.499,321.419 219.053,321.419 	"/> <path style="fill:#059BBF;" d="M135.345,321.288l56.01-130.307h-37.691l-34.843,89.028l-3.719-13.442
		c-6.83-16.171-26.35-39.446-49.266-54.098l31.85,108.863L135.345,321.288z"/> <path style="fill:#059BBF;" d="M342.931,278.75c0.132-14.819-9.383-26.122-29.887-35.458c-12.461-6.03-20.056-10.051-19.965-16.17
		c0-5.406,6.432-11.213,20.368-11.213c11.661-0.179,20.057,2.367,26.624,5.003l3.218,1.475l4.826-28.277
		c-7.059-2.637-18.094-5.451-31.895-5.451c-35.157,0-59.904,17.691-60.128,43.064c-0.224,18.763,17.692,29.216,31.181,35.469
		c13.847,6.374,18.493,10.453,18.404,16.171c-0.089,8.743-11.035,12.73-21.264,12.73c-14.25,0-21.8-1.965-33.509-6.843l-4.55-2.09
		l-4.998,29.249c8.303,3.629,23.668,6.801,39.618,6.933C318.361,323.342,342.663,305.876,342.931,278.75z"/> <path style="fill:#059BBF;" d="M385.233,301.855c4.065,0,40.382,0.045,45.566,0.045c1.072,4.545,4.333,19.565,4.333,19.565h33.011
		L439.33,191.027h-27.472c-8.533,0-14.874,2.323-18.628,10.809l-52.845,119.629h37.392
		C377.774,321.465,383.848,305.386,385.233,301.855z M409.622,238.645c-0.176,0.357,2.95-7.549,4.737-12.463l2.411,11.256
		c0,0,6.792,31.182,8.22,37.704h-29.528C398.411,267.638,409.622,238.645,409.622,238.645z"/> <path style="fill:#059BBF;" d="M481.735,79.451H30.265C13.55,79.451,0,93.001,0,109.717v31.412h512v-31.412
		C512,93.001,498.451,79.451,481.735,79.451z"/> </g> <path style="fill:#F79F1A;" d="M481.735,432.549H30.265C13.55,432.549,0,418.998,0,402.283v-31.412h512v31.412
	C512,418.998,498.451,432.549,481.735,432.549z"/> <path style="opacity:0.15;fill:#202121;enable-background:new    ;" d="M21.517,402.281V109.717
	c0-16.716,13.551-30.266,30.267-30.266h-21.52C13.55,79.451,0,93.001,0,109.717v292.565c0,16.716,13.55,30.267,30.265,30.267h21.52
	C35.069,432.549,21.517,418.997,21.517,402.281z"/>                </symbol>
</svg>