<svg viewBox="0 0 48.43 48.43"><path d="M47.381 32.029a.418.418 0 0 0-.177-.174.466.466 0 0 0-.229-.062.467.467 0 0 0-.23.062.469.469 0 1 0 .463.813.472.472 0 0 0 .173-.639zm-.246.406h-.102l-.062-.154h-.061v.154h-.082v-.392h.164c.02 0 .061.001.102.022.021.02.041.059.041.098 0 .043-.02.084-.061.102l.061.17z"/><path d="M47.013 32.123c0-.008-.041-.008-.062-.008h-.041v.101h.062s.021 0 .041-.008c.021-.009.021-.028.021-.046 0-.015 0-.031-.021-.039zM33.935 9.716a14.44 14.44 0 0 0-9.723 3.748 14.437 14.437 0 0 0-9.718-3.745h-.093C6.443 9.771 0 16.245 0 24.214c0 8.002 6.494 14.494 14.494 14.494 3.738 0 7.145-1.418 9.717-3.745a14.336 14.336 0 0 1-1.482-1.584h2.994a14.498 14.498 0 0 1-1.472 1.552h-.003l.001.002c-.012.011-.025.019-.037.031a14.431 14.431 0 0 0 9.729 3.749c8.006-.002 14.491-6.494 14.489-14.498v-.007c-.002-8.004-6.493-14.492-14.495-14.492zm-11.041 5.246h2.754c.408.491.785 1.01 1.125 1.552H21.86c.314-.519.662-1.05 1.034-1.552zm-1.892 3.075h6.605c.237.503.445 1.021.625 1.553h-8.013c.079-.15.359-.754.783-1.553zm-7.304 9.653h-1.72l1.024-5.37-2.355 5.37H9.091l-.287-5.334L7.78 27.69H6.223l1.332-6.982h2.683l.123 4.324 1.905-4.324h2.786l-1.354 6.982zm6.084-3.017l-.369 2.017-.061.361-.041.288-.021.194-.02.154h-1.433l.041-.587c-.429.468-1.024.685-1.802.685-.922 0-1.557-.633-1.557-1.549 0-1.382 1.106-2.19 3.01-2.19.184 0 .43.017.696.044.041-.187.062-.265.062-.369 0-.375-.308-.515-1.106-.515-.492 0-1.045.059-1.413.157l-.246.062-.143.037.225-1.279c.86-.218 1.413-.299 2.048-.299 1.474 0 2.253.577 2.253 1.665 0 .282-.02.493-.123 1.124zm3.422-2.802c1.412 0 2.314.803 2.314 2.062 0 .421-.062.828-.207 1.404h-3.398c-.021.087-.021.126-.021.18 0 .657.512.992 1.495.992.615 0 1.168-.11 1.782-.36l-.286 1.422a6.648 6.648 0 0 1-1.741.229c-1.925 0-2.929-.873-2.929-2.546 0-1.947 1.27-3.381 2.991-3.383zm3.587 10.017h-5.143c-.312-.5-.605-1.013-.856-1.552h6.843a14.514 14.514 0 0 1-.844 1.552zm3.151-8.573a11.555 11.555 0 0 0-1.25-.083c-.554 0-.84.156-.84.461 0 .266.082.33.799.618.879.345 1.229.802 1.229 1.581 0 1.296-.84 1.895-2.684 1.895-.224 0-.531-.017-.941-.047a4.309 4.309 0 0 1-.472-.052l-.307-.056-.082-.016.246-1.31a5.478 5.478 0 0 0 1.557.224c.676 0 .983-.158.983-.512 0-.26-.103-.344-.799-.627-.921-.371-1.331-.867-1.331-1.583 0-1.049.676-1.922 2.602-1.922.41 0 1.086.05 1.535.112l-.245 1.317zm2.685 3.104c.183 0 .326-.018.449-.055l-.225 1.26c-.471.129-.839.186-1.229.186-.881 0-1.352-.443-1.352-1.248 0-.16.02-.33.041-.51l.103-.559.081-.449.799-4.336h1.699l-.245 1.304h.88l-.246 1.382h-.881l-.45 2.369c-.021.103-.021.181-.021.234 0 .295.185.42.597.422zm4.189-2.809c-.819 0-1.084.61-1.699 4.083h-1.721l1.045-5.68h1.557l-.164.862c.533-.671.941-.923 1.495-.923.062 0 .124.006.185.014 0 .003.063.014.146.034.02.006.04.006.184.062l-.612 1.605-.205-.042a1.658 1.658 0 0 0-.211-.015zm3.039 4.232c-1.95 0-2.726-1.178-2.726-2.619 0-2.011 1.331-3.376 3.379-3.376 1.784 0 2.726 1.122 2.726 2.562 0 .353 0 .377-.041.707-.267 1.889-1.578 2.728-3.338 2.726zm3.522-.152a.45.45 0 0 1-.451-.445.45.45 0 0 1 .451-.441.45.45 0 0 1 .451.441.45.45 0 0 1-.451.445z"/><path d="M43.377 26.909a.348.348 0 0 0-.348.336c0 .19.164.34.348.34a.332.332 0 0 0 .328-.34.33.33 0 0 0-.328-.336zm.163.534h-.103l-.062-.153h-.062v.153h-.082v-.393h.164c.022 0 .063.002.104.023.02.019.041.058.041.098a.109.109 0 0 1-.062.102l.062.17z"/><path d="M43.417 27.13c.001-.009-.04-.009-.06-.009h-.043v.101h.062s.021 0 .041-.008c.021-.009.021-.028.021-.045 0-.015 0-.031-.021-.039zm-20.234-3.958c-.553 0-.942.361-1.106 1.019l1.905.004v-.294c0-.461-.287-.729-.799-.729zm-5.552 1.967c-.961-.001-1.453.29-1.453.864 0 .353.226.579.614.579.697 0 1.188-.582 1.229-1.422a3.207 3.207 0 0 0-.39-.021zm22.837-1.902c-.881 0-1.413 1.035-1.413 1.947 0 .772.368 1.29.983 1.278.37 0 1.167-.509 1.311-1.392.04-.207.061-.434.061-.681 0-.592-.245-1.154-.942-1.152z"/></svg>