<svg width="50" height="50"><path d="M25 2C12.318 2 2 12.317 2 25s10.318 23 23 23 23-10.317 23-23S37.682 2 25 2zm2.542 30.719c-3.297 0-4.516-2.138-4.516-2.138s-.588 2.309-1.021 3.95-.507 1.665-.927 2.591c-.471 1.039-1.626 2.674-1.966 3.177-.271.401-.607.735-.804.696-.197-.038-.197-.245-.245-.678-.066-.595-.258-2.594-.166-3.946.06-.88.367-2.371.367-2.371l2.225-9.108c-1.368-2.807-.246-7.192 2.871-7.192 2.211 0 2.79 2.001 2.113 4.406-.301 1.073-1.246 4.082-1.275 4.224-.029.142-.099.442-.083.738 0 .878.671 2.672 2.995 2.672 3.744 0 5.517-5.535 5.517-9.237 0-2.977-1.892-6.573-7.416-6.573-5.628 0-8.732 4.283-8.732 8.214 0 2.205.87 3.091 1.273 3.577.328.395.162.774.162.774l-.355 1.425c-.131.471-.552.713-1.143.368-.592-.34-3.416-1.536-3.416-6.639C13 16.42 17.926 11 25.571 11 31.64 11 37 14.817 37 21.001c0 7.634-4.768 11.718-9.458 11.718z"/></svg>