<svg viewBox="0 0 50 64"><path d="M50 44a12 12 0 0 1 0 3 14 14 0 0 1-1 2l-4 4a14 14 0 0 1-7 2 13 13 0 0 1-2 0 15 15 0 0 1-2-1h-1l-2-1-2-1a32 32 0 0 1-6-3 54 54 0 0 1-10-7 54 54 0 0 1-8-10 33 33 0 0 1-3-6 48 48 0 0 0-1-4v-1a16 16 0 0 1-1-3 15 15 0 0 1 0-1 14 14 0 0 1 2-7c1-2 2-4 4-4a14 14 0 0 1 2-1 12 12 0 0 1 3 0l2 2 1 2 2 3 1 1v1a10 10 0 0 1 1 2 2 2 0 0 1 0 1 3 3 0 0 1-1 1 17 17 0 0 1-2 2 21 21 0 0 0-2 2 3 3 0 0 0-1 2 2 2 0 0 0 0 1v1h1v1a38 38 0 0 0 6 8 38 38 0 0 0 9 7h1v1a6 6 0 0 0 1 0 2 2 0 0 0 1 0 3 3 0 0 0 2-1 24 24 0 0 0 1-2 18 18 0 0 1 2-2 3 3 0 0 1 2-1 2 2 0 0 1 1 0 12 12 0 0 1 1 1h1l2 1 3 2 1 1 3 2z"/></svg>